<?xml version="1.0" encoding="UTF-8"?>
<svg xmlns="http://www.w3.org/2000/svg" xmlns:xlink="http://www.w3.org/1999/xlink" width="24px" height="24px" viewBox="0 0 24 24" version="1.1">
<g id="surface1">
<path style=" stroke:none;fill-rule:evenodd;fill:rgb(0%,0%,0%);fill-opacity:1;" d="M 7.011719 5.933594 C 6.882812 6.058594 6.832031 6.230469 6.832031 6.515625 C 6.832031 6.945312 6.3125 7.15625 6.167969 6.785156 C 6.097656 6.597656 4.359375 6.589844 4.25 6.773438 C 4.199219 6.863281 3.90625 6.910156 3.234375 6.941406 C 1.929688 6.996094 1.226562 7.40625 0.84375 8.328125 C 0.65625 8.769531 0.664062 14.34375 0.847656 14.789062 C 1.0625 15.296875 1.410156 15.6875 1.875 15.941406 L 2.316406 16.179688 L 6.832031 16.179688 L 6.832031 16.8125 C 6.832031 17.933594 7.171875 18.246094 8.386719 18.246094 L 9.050781 18.246094 L 9.824219 17.683594 L 10.601562 17.125 L 10.605469 16.652344 L 10.605469 16.179688 L 13.125 16.179688 L 13.125 17.070312 L 13.777344 17.554688 C 14.679688 18.222656 14.738281 18.246094 15.414062 18.246094 C 16.570312 18.246094 16.898438 17.945312 16.898438 16.878906 L 16.898438 16.179688 L 19.238281 16.179688 C 23.070312 16.179688 23.148438 16.09375 23.246094 11.773438 C 23.316406 8.675781 23.273438 8.367188 22.628906 7.671875 C 22.007812 6.996094 21.933594 6.980469 19.257812 6.941406 L 16.898438 6.90625 L 16.898438 6.476562 C 16.898438 5.78125 16.828125 5.753906 15.082031 5.753906 C 13.304688 5.753906 13.125 5.824219 13.125 6.523438 L 13.125 6.921875 L 10.605469 6.921875 L 10.605469 6.460938 C 10.605469 5.773438 10.566406 5.757812 8.742188 5.753906 C 7.308594 5.753906 7.175781 5.765625 7.011719 5.933594 "/>
</g>
</svg>
