<?xml version="1.0" encoding="UTF-8"?>
<svg xmlns="http://www.w3.org/2000/svg" xmlns:xlink="http://www.w3.org/1999/xlink" width="24px" height="24px" viewBox="0 0 24 24" version="1.1">
<g id="surface1">
<path style=" stroke:none;fill-rule:evenodd;fill:rgb(0%,0%,0%);fill-opacity:1;" d="M 5.28125 1.511719 C 3.511719 1.871094 2.042969 3.253906 1.574219 4.992188 L 1.464844 5.398438 L 1.464844 18.601562 L 1.574219 19.007812 C 2.046875 20.765625 3.53125 22.148438 5.320312 22.492188 C 5.765625 22.578125 18.125 22.59375 18.601562 22.507812 C 20.558594 22.164062 22.117188 20.625 22.492188 18.679688 C 22.59375 18.15625 22.59375 5.84375 22.492188 5.320312 C 22.152344 3.542969 20.796875 2.078125 19.03125 1.574219 L 18.648438 1.464844 L 12.121094 1.457031 C 6.878906 1.449219 5.53125 1.460938 5.28125 1.511719 M 9.601562 6.605469 C 9.601562 10.589844 9.59375 10.808594 9.515625 10.777344 C 8.785156 10.488281 7.535156 10.488281 6.804688 10.777344 C 6.722656 10.808594 6.71875 10.589844 6.71875 6.605469 L 6.71875 2.398438 L 9.601562 2.398438 L 9.601562 6.605469 M 12.960938 2.542969 C 12.960938 2.707031 12.96875 2.710938 13.601562 2.65625 C 13.945312 2.628906 13.96875 2.617188 13.96875 2.511719 L 13.96875 2.398438 L 16.320312 2.398438 L 16.320312 2.703125 L 16.6875 2.671875 C 16.890625 2.652344 17.117188 2.640625 17.191406 2.640625 C 17.308594 2.640625 17.328125 2.621094 17.328125 2.515625 L 17.328125 2.386719 L 17.796875 2.421875 C 20.019531 2.582031 21.417969 3.980469 21.574219 6.203125 L 21.609375 6.671875 L 21.484375 6.671875 C 21.378906 6.671875 21.359375 6.695312 21.359375 6.808594 C 21.359375 6.882812 21.347656 7.109375 21.328125 7.3125 L 21.296875 7.679688 L 21.601562 7.679688 L 21.601562 10.03125 L 21.488281 10.03125 C 21.382812 10.03125 21.371094 10.054688 21.34375 10.398438 C 21.289062 11.03125 21.292969 11.039062 21.457031 11.039062 L 21.601562 11.039062 L 21.601562 17.210938 L 21.429688 17.273438 C 20.996094 17.429688 20.96875 18.046875 21.386719 18.199219 C 21.570312 18.265625 21.570312 18.253906 21.398438 18.839844 C 21.105469 19.855469 20.417969 20.679688 19.460938 21.160156 C 19.0625 21.359375 18.960938 21.386719 18.960938 21.289062 C 18.960938 21.132812 18.804688 20.917969 18.648438 20.851562 C 18.289062 20.703125 17.929688 20.957031 17.960938 21.339844 C 17.980469 21.617188 18.230469 21.601562 14.128906 21.601562 L 10.558594 21.601562 L 10.558594 17.445312 L 10.851562 17.160156 C 11.628906 16.398438 12 15.503906 12 14.398438 C 12 13.296875 11.628906 12.402344 10.851562 11.640625 L 10.558594 11.355469 L 10.558594 10.566406 L 10.722656 10.515625 C 11.226562 10.347656 11.175781 9.550781 10.660156 9.550781 L 10.558594 9.550781 L 10.558594 2.398438 L 12.960938 2.398438 L 12.960938 2.542969 M 5.761719 4.339844 C 5.761719 6.183594 5.757812 6.234375 5.664062 6.261719 C 5.300781 6.378906 5.269531 6.996094 5.617188 7.175781 L 5.761719 7.25 L 5.761719 11.355469 L 5.46875 11.640625 C 3.917969 13.164062 3.917969 15.636719 5.46875 17.160156 L 5.761719 17.445312 L 5.761719 21.554688 L 5.628906 21.523438 C 3.796875 21.128906 2.621094 19.847656 2.449219 18.058594 C 2.347656 17.042969 2.386719 10.695312 2.492188 10.75 C 2.902344 10.96875 3.359375 10.492188 3.160156 10.054688 C 3.058594 9.832031 2.714844 9.722656 2.488281 9.84375 L 2.390625 9.898438 L 2.414062 7.816406 C 2.4375 5.363281 2.472656 5.09375 2.785156 5.035156 C 3.136719 4.960938 3.308594 4.589844 3.140625 4.265625 C 2.898438 3.800781 4.714844 2.523438 5.722656 2.449219 C 5.742188 2.449219 5.761719 3.300781 5.761719 4.339844 M 13.621094 3.949219 C 13.34375 4.011719 13.199219 4.070312 13.199219 4.113281 C 13.199219 4.1875 13.511719 5.144531 13.597656 5.335938 L 13.65625 5.46875 L 14.113281 5.273438 L 14.574219 5.082031 L 14.371094 4.472656 C 14.140625 3.785156 14.1875 3.816406 13.621094 3.949219 M 17.027344 4 C 16.796875 4.082031 16.609375 4.179688 16.609375 4.210938 C 16.609375 4.296875 17.121094 5.285156 17.25 5.445312 L 17.363281 5.585938 L 17.75 5.300781 C 18.210938 4.964844 18.191406 5.03125 17.933594 4.613281 C 17.820312 4.429688 17.6875 4.179688 17.644531 4.058594 C 17.546875 3.804688 17.570312 3.804688 17.027344 4 M 4.050781 5.183594 C 3.695312 5.324219 3.714844 5.945312 4.078125 6.09375 C 4.601562 6.3125 5.039062 5.648438 4.621094 5.277344 C 4.457031 5.132812 4.257812 5.097656 4.050781 5.183594 M 18.699219 6.25 L 18.414062 6.636719 L 18.554688 6.753906 C 18.710938 6.878906 19.703125 7.390625 19.792969 7.390625 C 19.84375 7.390625 20.191406 6.492188 20.152344 6.457031 C 20.144531 6.449219 20.015625 6.386719 19.867188 6.320312 C 19.71875 6.257812 19.472656 6.125 19.324219 6.027344 C 18.984375 5.808594 19.03125 5.792969 18.699219 6.25 M 14.726562 6.398438 C 14.238281 6.703125 14.246094 6.664062 14.554688 7.117188 C 14.703125 7.332031 14.898438 7.597656 14.988281 7.703125 L 15.152344 7.890625 L 15.515625 7.582031 C 15.957031 7.207031 15.949219 7.277344 15.609375 6.828125 C 15.457031 6.621094 15.292969 6.398438 15.25 6.324219 C 15.140625 6.15625 15.113281 6.160156 14.726562 6.398438 M 16.417969 8.484375 L 16.109375 8.847656 L 16.296875 9.011719 C 16.402344 9.101562 16.667969 9.296875 16.886719 9.445312 C 17.339844 9.753906 17.289062 9.765625 17.609375 9.253906 C 17.84375 8.871094 17.847656 8.859375 17.675781 8.75 C 17.601562 8.707031 17.378906 8.542969 17.171875 8.390625 C 16.722656 8.050781 16.792969 8.042969 16.417969 8.484375 M 18.722656 9.882812 C 18.496094 10.417969 18.441406 10.34375 19.261719 10.617188 C 19.96875 10.847656 19.921875 10.867188 20.058594 10.300781 C 20.183594 9.792969 20.246094 9.871094 19.515625 9.625 L 18.914062 9.425781 L 18.722656 9.882812 M 11.804688 10.796875 C 11.53125 11.070312 11.664062 11.558594 12.035156 11.628906 C 12.535156 11.726562 12.851562 11.136719 12.492188 10.777344 C 12.3125 10.597656 11.996094 10.605469 11.804688 10.796875 M 4.050781 10.945312 C 3.695312 11.085938 3.714844 11.703125 4.078125 11.855469 C 4.601562 12.070312 5.039062 11.410156 4.621094 11.035156 C 4.457031 10.890625 4.257812 10.859375 4.050781 10.945312 M 13.375 11.886719 C 13.117188 12.144531 13.21875 12.621094 13.554688 12.710938 C 13.921875 12.8125 14.207031 12.613281 14.207031 12.253906 C 14.207031 11.8125 13.683594 11.578125 13.375 11.886719 M 8.84375 14.386719 C 9.207031 15.359375 9.503906 16.167969 9.503906 16.1875 C 9.503906 16.210938 9.214844 16.03125 8.855469 15.792969 C 8.5 15.554688 8.1875 15.359375 8.160156 15.359375 C 8.132812 15.359375 7.820312 15.554688 7.460938 15.792969 C 7.105469 16.03125 6.816406 16.210938 6.816406 16.1875 C 6.8125 16.125 8.132812 12.625 8.160156 12.625 C 8.171875 12.625 8.480469 13.417969 8.84375 14.386719 M 14.953125 12.980469 C 14.816406 13.117188 14.761719 13.296875 14.804688 13.46875 C 14.941406 14.019531 15.792969 13.914062 15.792969 13.34375 C 15.792969 12.921875 15.246094 12.683594 14.953125 12.980469 M 16.71875 13.976562 C 16.496094 14.035156 16.359375 14.234375 16.375 14.46875 L 16.390625 14.664062 L 16.078125 14.777344 C 15.304688 15.0625 14.210938 14.921875 13.738281 14.480469 C 13.609375 14.363281 13.617188 14.351562 13.371094 14.832031 C 12.679688 16.179688 12.84375 17.933594 13.78125 19.167969 C 15.273438 21.136719 18.324219 21.136719 19.816406 19.167969 C 20.753906 17.9375 20.917969 16.175781 20.226562 14.832031 C 19.980469 14.351562 19.992188 14.363281 19.863281 14.480469 C 19.414062 14.898438 18.363281 15.054688 17.613281 14.8125 L 17.347656 14.722656 L 17.347656 14.46875 C 17.351562 14.085938 17.085938 13.878906 16.71875 13.976562 M 11.804688 16.554688 C 11.53125 16.832031 11.664062 17.320312 12.035156 17.390625 C 12.535156 17.484375 12.851562 16.894531 12.492188 16.535156 C 12.3125 16.355469 11.996094 16.367188 11.804688 16.554688 M 7.242188 18.148438 C 7.882812 18.3125 8.929688 18.253906 9.515625 18.023438 C 9.59375 17.992188 9.601562 18.09375 9.601562 19.792969 L 9.601562 21.601562 L 6.71875 21.601562 L 6.71875 19.792969 C 6.71875 18.09375 6.726562 17.992188 6.804688 18.023438 C 6.851562 18.042969 7.046875 18.097656 7.242188 18.148438 "/>
</g>
</svg>
