<?xml version="1.0" encoding="UTF-8"?>
<svg xmlns="http://www.w3.org/2000/svg" xmlns:xlink="http://www.w3.org/1999/xlink" width="24px" height="24px" viewBox="0 0 24 24" version="1.1">
<g id="surface1">
<path style=" stroke:none;fill-rule:evenodd;fill:rgb(0%,0%,0%);fill-opacity:1;" d="M 8.507812 0.96875 C 8.28125 1 7.90625 1.132812 7.835938 1.203125 C 7.804688 1.238281 7.734375 1.265625 7.6875 1.265625 C 7.605469 1.265625 6.976562 1.796875 6.945312 1.894531 C 6.933594 1.921875 6.902344 1.96875 6.875 1.992188 C 6.285156 2.527344 6.285156 4.152344 6.875 4.832031 C 6.910156 4.871094 6.9375 4.925781 6.9375 4.949219 C 6.9375 5.007812 7.289062 5.34375 7.347656 5.34375 C 7.371094 5.34375 7.429688 5.382812 7.480469 5.429688 C 7.53125 5.476562 7.613281 5.539062 7.664062 5.566406 C 7.738281 5.613281 7.65625 5.621094 7.257812 5.625 C 6.976562 5.625 6.742188 5.644531 6.726562 5.671875 C 6.710938 5.699219 6.648438 5.71875 6.589844 5.71875 C 6.472656 5.71875 6.117188 5.828125 5.835938 5.949219 C 5.734375 5.996094 5.542969 6.070312 5.414062 6.117188 C 5.285156 6.164062 5.113281 6.253906 5.03125 6.3125 C 4.949219 6.371094 4.867188 6.421875 4.851562 6.421875 C 4.824219 6.421875 4.515625 6.640625 4.453125 6.703125 C 4.441406 6.714844 4.351562 6.765625 4.257812 6.8125 C 4.164062 6.863281 4.003906 6.976562 3.898438 7.070312 C 3.671875 7.28125 3.570312 7.363281 3.421875 7.457031 C 3.199219 7.601562 1.414062 9.4375 1.363281 9.574219 C 1.34375 9.632812 1.234375 9.769531 1.097656 9.90625 C 0.433594 10.582031 0.882812 11.671875 1.824219 11.671875 C 2.144531 11.671875 2.394531 11.492188 2.898438 10.894531 C 3.386719 10.316406 3.542969 10.148438 4.074219 9.621094 C 4.664062 9.039062 4.765625 8.964844 4.722656 9.152344 C 4.621094 9.574219 4.53125 10.011719 4.476562 10.3125 C 4.386719 10.800781 4.296875 11.230469 4.15625 11.855469 C 3.984375 12.59375 4.011719 13.273438 4.214844 13.453125 C 4.378906 13.597656 4.390625 13.851562 4.289062 15.101562 C 4.253906 15.574219 4.199219 16.292969 4.175781 16.695312 C 4.128906 17.398438 4.101562 17.527344 3.914062 17.90625 C 3.882812 17.972656 3.84375 18.078125 3.828125 18.140625 C 3.8125 18.207031 3.671875 18.574219 3.511719 18.960938 C 3.355469 19.347656 3.214844 19.714844 3.203125 19.78125 C 3.191406 19.847656 3.136719 19.988281 3.089844 20.097656 C 3.039062 20.207031 3 20.3125 3 20.332031 C 3 20.351562 2.945312 20.472656 2.882812 20.601562 C 2.820312 20.730469 2.769531 20.871094 2.765625 20.914062 C 2.765625 20.957031 2.746094 21.007812 2.71875 21.023438 C 2.691406 21.039062 2.671875 21.105469 2.671875 21.171875 C 2.671875 21.234375 2.640625 21.320312 2.601562 21.359375 C 2.503906 21.453125 2.507812 22.109375 2.601562 22.238281 C 2.640625 22.289062 2.671875 22.359375 2.671875 22.398438 C 2.671875 22.457031 2.863281 22.664062 3.054688 22.804688 C 3.515625 23.148438 4.179688 23.132812 4.554688 22.769531 C 4.601562 22.722656 4.660156 22.6875 4.683594 22.6875 C 4.734375 22.6875 5.0625 22.113281 5.0625 22.023438 C 5.0625 21.988281 5.105469 21.882812 5.15625 21.785156 C 5.207031 21.6875 5.25 21.589844 5.25 21.5625 C 5.25 21.535156 5.289062 21.425781 5.335938 21.316406 C 5.386719 21.207031 5.453125 21.023438 5.484375 20.90625 C 5.515625 20.789062 5.570312 20.65625 5.605469 20.601562 C 5.644531 20.550781 5.671875 20.476562 5.671875 20.4375 C 5.671875 20.394531 5.734375 20.238281 5.8125 20.085938 C 5.890625 19.933594 5.953125 19.777344 5.953125 19.734375 C 5.953125 19.695312 5.980469 19.621094 6.015625 19.570312 C 6.050781 19.519531 6.09375 19.40625 6.109375 19.324219 C 6.125 19.238281 6.191406 19.058594 6.257812 18.921875 C 6.320312 18.78125 6.375 18.648438 6.375 18.621094 C 6.375 18.59375 6.425781 18.46875 6.488281 18.34375 C 6.582031 18.148438 6.601562 18.019531 6.632812 17.414062 C 6.648438 17.027344 6.683594 16.691406 6.707031 16.667969 C 6.730469 16.640625 6.75 16.453125 6.75 16.246094 L 6.753906 15.867188 L 6.855469 15.988281 C 6.914062 16.054688 7.023438 16.214844 7.101562 16.339844 C 7.179688 16.460938 7.28125 16.617188 7.324219 16.683594 C 7.371094 16.75 7.421875 16.839844 7.4375 16.886719 C 7.453125 16.933594 7.480469 16.96875 7.503906 16.96875 C 7.523438 16.96875 7.554688 17.015625 7.574219 17.074219 C 7.59375 17.132812 7.71875 17.34375 7.859375 17.546875 C 7.996094 17.746094 8.109375 17.953125 8.109375 18.003906 C 8.109375 18.105469 8.199219 18.492188 8.253906 18.632812 C 8.273438 18.683594 8.316406 18.84375 8.347656 18.984375 C 8.378906 19.125 8.425781 19.292969 8.453125 19.359375 C 8.515625 19.515625 8.8125 20.605469 8.84375 20.8125 C 8.859375 20.902344 8.886719 20.996094 8.90625 21.023438 C 8.925781 21.050781 8.96875 21.195312 9 21.351562 C 9.03125 21.507812 9.085938 21.695312 9.117188 21.773438 C 9.152344 21.851562 9.214844 22.035156 9.257812 22.1875 C 9.328125 22.441406 9.660156 22.875 9.785156 22.875 C 9.804688 22.875 9.882812 22.910156 9.960938 22.953125 C 10.230469 23.101562 11.15625 23 11.15625 22.820312 C 11.15625 22.804688 11.195312 22.773438 11.246094 22.757812 C 11.652344 22.628906 11.84375 21.566406 11.554688 21.015625 C 11.515625 20.941406 11.484375 20.839844 11.484375 20.785156 C 11.484375 20.675781 11.414062 20.441406 11.316406 20.21875 C 11.28125 20.136719 11.25 20.03125 11.25 19.984375 C 11.25 19.933594 11.199219 19.714844 11.132812 19.496094 C 11.070312 19.28125 11.015625 19.054688 11.015625 18.992188 C 11.015625 18.933594 10.972656 18.792969 10.921875 18.683594 C 10.871094 18.570312 10.816406 18.386719 10.800781 18.273438 C 10.785156 18.164062 10.742188 18.007812 10.710938 17.929688 C 10.679688 17.851562 10.617188 17.632812 10.570312 17.4375 C 10.492188 17.105469 10.335938 16.671875 10.253906 16.570312 C 10.128906 16.410156 9.878906 16.019531 9.769531 15.820312 C 9.703125 15.691406 9.605469 15.542969 9.558594 15.488281 C 9.507812 15.4375 9.46875 15.375 9.46875 15.355469 C 9.46875 15.335938 9.417969 15.253906 9.355469 15.171875 C 9.292969 15.089844 9.21875 14.96875 9.1875 14.90625 C 9.105469 14.71875 9.019531 14.582031 8.917969 14.472656 C 8.863281 14.414062 8.78125 14.289062 8.726562 14.199219 C 8.539062 13.855469 8.507812 13.804688 8.445312 13.726562 C 8.394531 13.664062 8.402344 13.621094 8.480469 13.46875 C 8.535156 13.371094 8.578125 13.222656 8.578125 13.140625 C 8.578125 13.058594 8.628906 12.773438 8.695312 12.507812 C 8.757812 12.242188 8.8125 11.980469 8.8125 11.925781 C 8.8125 11.871094 8.855469 11.691406 8.90625 11.527344 C 8.960938 11.359375 9.023438 11.078125 9.050781 10.898438 C 9.074219 10.71875 9.117188 10.550781 9.140625 10.527344 C 9.167969 10.5 9.1875 10.410156 9.1875 10.324219 C 9.1875 10.238281 9.210938 10.074219 9.238281 9.964844 L 9.289062 9.761719 L 9.402344 9.875 C 9.464844 9.9375 9.515625 10.003906 9.515625 10.023438 C 9.515625 10.109375 10.875 11.4375 11.144531 11.613281 C 11.214844 11.65625 11.332031 11.753906 11.414062 11.828125 C 11.492188 11.898438 11.613281 11.992188 11.683594 12.027344 C 11.753906 12.066406 11.8125 12.113281 11.8125 12.128906 C 11.8125 12.148438 11.871094 12.191406 11.941406 12.222656 C 12.011719 12.253906 12.195312 12.375 12.347656 12.488281 C 12.726562 12.777344 13.261719 12.871094 13.488281 12.691406 C 13.53125 12.65625 13.578125 12.667969 13.648438 12.730469 C 13.804688 12.867188 14.269531 13.363281 14.289062 13.410156 C 14.296875 13.433594 14.335938 13.453125 14.371094 13.453125 C 14.40625 13.453125 14.4375 13.46875 14.4375 13.488281 C 14.4375 13.507812 14.722656 13.820312 15.070312 14.179688 C 15.417969 14.539062 15.703125 14.84375 15.703125 14.851562 C 15.703125 14.871094 15.90625 15.089844 16.476562 15.675781 C 16.734375 15.945312 17.03125 16.253906 17.140625 16.367188 C 17.636719 16.890625 18.621094 17.8125 18.683594 17.8125 C 18.792969 17.8125 19.125 17.472656 19.125 17.359375 C 19.125 17.304688 19.070312 17.226562 18.996094 17.179688 C 18.878906 17.101562 15.375 13.605469 15.375 13.5625 C 15.375 13.527344 14.800781 12.984375 14.761719 12.984375 C 14.738281 12.984375 14.71875 12.960938 14.71875 12.933594 C 14.71875 12.902344 14.566406 12.730469 14.382812 12.550781 L 14.050781 12.21875 L 14.058594 11.824219 C 14.070312 11.28125 13.910156 11.0625 13.171875 10.609375 C 13.054688 10.539062 12.949219 10.46875 12.9375 10.453125 C 12.925781 10.4375 12.820312 10.355469 12.703125 10.265625 C 12.160156 9.855469 11.484375 9.214844 11.015625 8.667969 C 10.609375 8.195312 10.5625 8.136719 10.289062 7.78125 C 10.164062 7.613281 10.011719 7.429688 9.953125 7.375 C 9.890625 7.316406 9.84375 7.257812 9.84375 7.238281 C 9.84375 7.207031 9.707031 7.050781 9.386719 6.71875 C 9.277344 6.605469 9.1875 6.496094 9.1875 6.476562 C 9.1875 6.4375 8.832031 6.140625 8.78125 6.140625 C 8.757812 6.136719 8.667969 6.074219 8.578125 6 L 8.414062 5.863281 L 8.90625 5.859375 C 9.378906 5.855469 9.789062 5.796875 9.84375 5.726562 C 9.855469 5.707031 9.960938 5.652344 10.078125 5.601562 C 10.359375 5.476562 10.964844 4.867188 11.105469 4.570312 C 11.878906 2.914062 10.828125 1.058594 9.0625 0.96875 C 8.835938 0.957031 8.585938 0.957031 8.507812 0.96875 M 20.566406 15.222656 C 20.46875 15.332031 20.296875 15.664062 20.296875 15.738281 C 20.296875 15.839844 19.910156 16.542969 19.769531 16.699219 C 19.699219 16.78125 19.640625 16.859375 19.640625 16.875 C 19.640625 16.894531 19.597656 16.957031 19.546875 17.015625 C 19.496094 17.074219 19.453125 17.148438 19.453125 17.179688 C 19.453125 17.207031 19.414062 17.273438 19.371094 17.324219 C 19.082031 17.636719 19.015625 17.832031 19.175781 17.882812 C 19.226562 17.902344 19.4375 18.019531 19.644531 18.144531 C 19.847656 18.269531 20.035156 18.375 20.0625 18.375 C 20.089844 18.375 20.109375 18.390625 20.109375 18.414062 C 20.109375 18.433594 20.21875 18.503906 20.355469 18.566406 C 20.492188 18.628906 20.683594 18.738281 20.785156 18.808594 C 21.019531 18.972656 21.03125 18.972656 21.257812 18.75 L 21.449219 18.5625 L 21.691406 18.65625 C 22.375 18.917969 23.117188 18.648438 23.21875 18.101562 C 23.25 17.945312 23.152344 17.625 23.074219 17.625 C 23.054688 17.625 22.984375 17.578125 22.921875 17.519531 C 22.855469 17.460938 22.703125 17.371094 22.582031 17.328125 C 22.460938 17.28125 22.359375 17.222656 22.359375 17.199219 C 22.359375 17.175781 22.328125 17.15625 22.289062 17.15625 C 22.222656 17.15625 21.75 16.695312 21.75 16.628906 C 21.75 16.574219 21.390625 16.21875 21.335938 16.21875 C 21.3125 16.21875 21.292969 16.0625 21.296875 15.851562 C 21.308594 15.265625 20.867188 14.882812 20.566406 15.222656 M 14.929688 17.269531 C 14.550781 17.441406 14.511719 17.789062 14.84375 18.097656 C 15.195312 18.433594 15.207031 18.441406 15.375 18.5625 C 15.464844 18.625 15.566406 18.707031 15.597656 18.75 C 15.667969 18.835938 15.679688 20.582031 15.613281 20.652344 C 15.574219 20.691406 15.425781 20.957031 15.136719 21.527344 C 15.085938 21.625 15.003906 21.785156 14.953125 21.886719 C 14.636719 22.503906 15.261719 23.054688 15.730469 22.570312 C 15.820312 22.480469 15.890625 22.375 15.890625 22.339844 C 15.890625 22.304688 15.921875 22.25 15.960938 22.21875 C 16 22.1875 16.03125 22.109375 16.03125 22.050781 C 16.03125 21.988281 16.050781 21.9375 16.078125 21.9375 C 16.101562 21.9375 16.136719 21.878906 16.15625 21.808594 C 16.171875 21.738281 16.203125 21.667969 16.21875 21.65625 C 16.238281 21.644531 16.296875 21.542969 16.355469 21.433594 C 16.476562 21.191406 16.519531 21.1875 16.621094 21.394531 C 16.660156 21.484375 16.726562 21.582031 16.761719 21.613281 C 16.796875 21.644531 16.828125 21.695312 16.828125 21.726562 C 16.828125 21.757812 16.859375 21.808594 16.894531 21.839844 C 16.929688 21.871094 16.972656 21.945312 16.988281 22.003906 C 17.019531 22.136719 17.320312 22.59375 17.425781 22.675781 C 17.667969 22.859375 18.050781 22.707031 18.183594 22.375 C 18.246094 22.222656 17.898438 21.367188 17.738281 21.269531 C 17.707031 21.25 17.65625 21.160156 17.625 21.070312 C 17.59375 20.980469 17.550781 20.90625 17.527344 20.90625 C 17.503906 20.90625 17.484375 20.886719 17.484375 20.859375 C 17.484375 20.828125 17.9375 20.8125 18.746094 20.8125 L 20.007812 20.8125 L 20.023438 21.628906 C 20.042969 22.621094 20.074219 22.703125 20.480469 22.726562 C 20.695312 22.738281 20.734375 22.722656 20.859375 22.601562 L 21 22.460938 L 21 19.148438 L 20.777344 19.007812 C 20.65625 18.929688 20.5 18.847656 20.4375 18.824219 C 20.375 18.800781 20.304688 18.753906 20.28125 18.71875 C 20.261719 18.683594 20.210938 18.65625 20.171875 18.65625 C 20.128906 18.65625 19.988281 18.585938 19.855469 18.496094 C 19.519531 18.273438 19.273438 18.140625 19.199219 18.140625 C 19.164062 18.140625 19.121094 18.109375 19.109375 18.070312 C 19.085938 18.011719 18.882812 18 17.683594 18 L 16.289062 17.996094 L 16.03125 17.765625 C 15.890625 17.636719 15.75 17.53125 15.71875 17.53125 C 15.6875 17.53125 15.644531 17.503906 15.625 17.46875 C 15.511719 17.28125 15.140625 17.171875 14.929688 17.269531 "/>
</g>
</svg>
