<?xml version="1.0" encoding="UTF-8"?>
<svg xmlns="http://www.w3.org/2000/svg" xmlns:xlink="http://www.w3.org/1999/xlink" width="24px" height="24px" viewBox="0 0 24 24" version="1.1">
<g id="surface1">
<path style=" stroke:none;fill-rule:evenodd;fill:rgb(0%,0%,0%);fill-opacity:1;" d="M 11.558594 3.015625 C 9.222656 3.253906 7.441406 5.265625 7.503906 7.578125 C 7.527344 8.371094 7.816406 9.234375 8.558594 10.714844 C 8.703125 11.003906 8.820312 11.242188 8.820312 11.246094 C 8.820312 11.246094 7.886719 11.25 6.746094 11.25 L 4.671875 11.25 L 2.015625 20.992188 L 7.007812 20.996094 C 9.753906 21 14.246094 21 16.992188 20.996094 L 21.984375 20.992188 L 19.328125 11.25 L 17.253906 11.25 C 16.113281 11.25 15.179688 11.246094 15.179688 11.238281 C 15.179688 11.234375 15.25 11.09375 15.335938 10.925781 C 16.191406 9.273438 16.515625 8.273438 16.496094 7.371094 C 16.433594 4.78125 14.132812 2.753906 11.558594 3.015625 M 12.226562 4.515625 C 13.710938 4.628906 14.867188 5.785156 14.984375 7.273438 C 15.050781 8.101562 14.371094 9.726562 12.992188 12.039062 C 12.65625 12.597656 12.027344 13.574219 12 13.574219 C 11.960938 13.574219 11.15625 12.304688 10.78125 11.65625 C 9.515625 9.464844 8.953125 8.0625 9.015625 7.277344 C 9.140625 5.710938 10.363281 4.558594 11.960938 4.503906 C 11.996094 4.5 12.113281 4.507812 12.226562 4.515625 M 11.734375 6.402344 C 10.710938 6.65625 10.566406 8.054688 11.511719 8.511719 C 12.257812 8.871094 13.125 8.328125 13.125 7.5 C 13.125 6.773438 12.4375 6.230469 11.734375 6.402344 M 9.757812 12.886719 C 10.144531 13.515625 10.246094 13.6875 10.4375 13.988281 C 10.800781 14.566406 11.175781 15.132812 11.554688 15.683594 C 11.753906 15.972656 11.933594 16.234375 11.953125 16.261719 C 11.976562 16.292969 11.996094 16.320312 12 16.320312 C 12.003906 16.320312 12.023438 16.292969 12.046875 16.261719 C 12.066406 16.234375 12.246094 15.972656 12.445312 15.683594 C 12.824219 15.132812 13.199219 14.566406 13.5625 13.988281 C 13.753906 13.6875 13.855469 13.515625 14.242188 12.886719 L 14.316406 12.757812 L 16.246094 12.753906 L 18.171875 12.75 L 19.085938 16.097656 C 19.589844 17.941406 20.003906 19.460938 20.007812 19.472656 C 20.011719 19.5 19.625 19.5 12 19.5 C 4.375 19.5 3.988281 19.5 3.992188 19.472656 C 3.996094 19.460938 4.410156 17.941406 4.914062 16.097656 L 5.828125 12.75 L 7.753906 12.753906 L 9.683594 12.757812 L 9.757812 12.886719 "/>
</g>
</svg>
