<?xml version="1.0" encoding="UTF-8"?>
<svg xmlns="http://www.w3.org/2000/svg" xmlns:xlink="http://www.w3.org/1999/xlink" width="24px" height="24px" viewBox="0 0 24 24" version="1.1">
<g id="surface1">
<path style=" stroke:none;fill-rule:evenodd;fill:rgb(0%,0%,0%);fill-opacity:1;" d="M 15.601562 3.023438 C 14.535156 3.140625 13.523438 3.609375 12.765625 4.34375 L 12.605469 4.5 L 8.765625 4.503906 C 4.476562 4.507812 4.894531 4.496094 4.546875 4.613281 C 3.777344 4.871094 3.207031 5.515625 3.035156 6.328125 C 2.992188 6.527344 2.992188 18.972656 3.035156 19.171875 C 3.230469 20.085938 3.914062 20.769531 4.828125 20.964844 C 5.027344 21.007812 17.472656 21.007812 17.671875 20.964844 C 18.484375 20.792969 19.128906 20.222656 19.386719 19.453125 C 19.5 19.105469 19.492188 19.503906 19.5 15.367188 L 19.507812 11.664062 L 19.640625 11.46875 C 20.734375 9.890625 21.117188 8.710938 20.980469 7.378906 C 20.695312 4.695312 18.273438 2.734375 15.601562 3.023438 M 16.636719 4.546875 C 18.640625 4.839844 19.925781 6.855469 19.359375 8.816406 C 19.191406 9.386719 18.882812 9.945312 18.15625 10.988281 C 17.285156 12.238281 16.636719 13.417969 16.183594 14.582031 C 16.15625 14.65625 16.128906 14.714844 16.125 14.714844 C 16.121094 14.714844 16.078125 14.613281 16.03125 14.492188 C 15.570312 13.34375 14.941406 12.207031 14.09375 10.988281 C 13.050781 9.496094 12.757812 8.8125 12.761719 7.875 C 12.761719 5.796875 14.570312 4.242188 16.636719 4.546875 M 11.609375 6.007812 C 11.609375 6.011719 11.578125 6.101562 11.542969 6.203125 C 11.019531 7.644531 11.183594 9.089844 12.039062 10.570312 C 12.101562 10.679688 12.148438 10.777344 12.148438 10.785156 C 12.144531 10.796875 7.855469 15.074219 5 17.914062 L 4.5 18.414062 L 4.507812 6.609375 L 4.539062 6.515625 C 4.632812 6.238281 4.867188 6.046875 5.152344 6.011719 C 5.222656 6 11.609375 6 11.609375 6.007812 M 7.109375 6.78125 C 5.640625 7.039062 4.820312 8.648438 5.472656 9.984375 C 6.128906 11.316406 7.855469 11.671875 8.976562 10.699219 C 9.425781 10.3125 9.710938 9.738281 9.746094 9.160156 L 9.753906 9 L 7.5 9 L 7.5 9.75 L 8.136719 9.75 C 8.488281 9.75 8.773438 9.753906 8.773438 9.757812 C 8.773438 9.785156 8.632812 9.96875 8.542969 10.058594 C 7.746094 10.855469 6.363281 10.492188 6.0625 9.40625 C 5.675781 8.007812 7.308594 6.933594 8.433594 7.84375 L 8.5625 7.945312 L 9.097656 7.410156 L 9.050781 7.363281 C 8.621094 6.90625 7.792969 6.660156 7.109375 6.78125 M 15.859375 6.777344 C 14.835938 7.03125 14.691406 8.429688 15.636719 8.886719 C 16.382812 9.246094 17.25 8.703125 17.25 7.875 C 17.25 7.148438 16.5625 6.605469 15.859375 6.777344 M 13.148438 12.253906 C 14.222656 13.796875 14.730469 14.8125 15.097656 16.160156 C 15.125 16.269531 15.148438 16.363281 15.148438 16.371094 C 15.148438 16.378906 14.421875 15.660156 13.53125 14.765625 L 11.910156 13.148438 L 12.453125 12.605469 C 12.753906 12.304688 13.003906 12.0625 13.007812 12.0625 C 13.011719 12.066406 13.078125 12.152344 13.148438 12.253906 M 17.996094 16.828125 C 17.992188 18.785156 17.992188 18.898438 17.964844 18.976562 C 17.921875 19.101562 17.859375 19.203125 17.765625 19.292969 C 17.613281 19.4375 17.597656 19.417969 17.746094 19.269531 L 17.886719 19.125 L 16.945312 18.183594 L 16.003906 17.238281 L 16.121094 17.246094 C 16.636719 17.277344 16.949219 16.976562 17.125 16.277344 C 17.304688 15.5625 17.523438 14.976562 17.871094 14.28125 L 17.992188 14.035156 L 17.996094 14.402344 C 18 14.601562 18 15.695312 17.996094 16.828125 M 13.484375 16.867188 L 16.117188 19.5 L 5.585938 19.5 L 8.21875 16.867188 C 9.667969 15.417969 10.851562 14.234375 10.851562 14.234375 C 10.851562 14.234375 12.039062 15.417969 13.484375 16.867188 "/>
</g>
</svg>
