<?xml version="1.0" encoding="UTF-8"?>
<svg xmlns="http://www.w3.org/2000/svg" xmlns:xlink="http://www.w3.org/1999/xlink" width="24px" height="24px" viewBox="0 0 24 24" version="1.1">
<g id="surface1">
<path style=" stroke:none;fill-rule:evenodd;fill:rgb(0%,0%,0%);fill-opacity:1;" d="M 21.722656 3.425781 C 20.53125 3.652344 19.421875 3.863281 19.257812 3.898438 L 18.957031 3.957031 L 19.46875 4.519531 C 19.75 4.828125 19.972656 5.089844 19.964844 5.097656 C 19.953125 5.105469 18.355469 6.421875 16.40625 8.019531 C 14.460938 9.621094 12.84375 10.949219 12.816406 10.976562 L 12.761719 11.023438 L 11.15625 10.175781 C 10.234375 9.6875 9.53125 9.328125 9.507812 9.335938 C 9.476562 9.34375 0.0546875 14.695312 0.0078125 14.730469 C -0.0195312 14.75 1.070312 16.480469 1.105469 16.472656 C 1.128906 16.46875 1.4375 16.296875 1.792969 16.097656 C 2.148438 15.894531 4.039062 14.816406 5.992188 13.707031 C 7.949219 12.59375 9.554688 11.679688 9.5625 11.679688 C 9.570312 11.679688 10.15625 11.988281 10.867188 12.363281 C 12.941406 13.460938 13.007812 13.492188 13.019531 13.492188 C 13.027344 13.492188 13.152344 13.398438 13.292969 13.277344 C 13.4375 13.160156 14.421875 12.351562 15.476562 11.480469 C 16.535156 10.613281 18.292969 9.164062 19.382812 8.269531 C 20.472656 7.371094 21.371094 6.636719 21.378906 6.636719 C 21.386719 6.636719 21.601562 6.867188 21.855469 7.152344 C 22.113281 7.433594 22.328125 7.65625 22.335938 7.648438 C 22.347656 7.636719 22.6875 6.691406 23.09375 5.546875 C 23.5 4.402344 23.871094 3.363281 23.917969 3.238281 C 23.996094 3.015625 23.996094 3.011719 23.945312 3.015625 C 23.914062 3.015625 22.914062 3.203125 21.722656 3.425781 M 20.460938 9.53125 C 20.015625 9.894531 19.46875 10.347656 19.242188 10.535156 L 18.832031 10.875 L 18.839844 15.691406 L 18.84375 20.511719 L 18.910156 20.636719 C 19.105469 21.003906 19.085938 21 20.851562 21 C 22.582031 21 22.515625 21.007812 22.726562 20.792969 C 22.941406 20.582031 22.921875 21.039062 22.921875 15.558594 L 22.921875 10.664062 L 22.109375 9.769531 C 21.664062 9.28125 21.292969 8.875 21.285156 8.871094 C 21.277344 8.867188 20.90625 9.164062 20.460938 9.53125 M 15.148438 13.898438 C 14.046875 14.808594 13.136719 15.542969 13.125 15.535156 C 13.109375 15.53125 13.101562 16.601562 13.101562 18.003906 L 13.101562 20.484375 L 13.160156 20.609375 C 13.339844 20.996094 13.363281 21 15.171875 21 L 16.664062 21 L 16.804688 20.929688 C 16.953125 20.859375 17.039062 20.773438 17.125 20.609375 L 17.179688 20.511719 L 17.1875 16.398438 C 17.191406 14.136719 17.183594 12.277344 17.175781 12.265625 C 17.164062 12.257812 16.253906 12.992188 15.148438 13.898438 M 8.460938 14.296875 L 7.359375 14.925781 L 7.359375 20.511719 L 7.414062 20.609375 C 7.5 20.773438 7.585938 20.859375 7.734375 20.929688 L 7.875 21 L 9.367188 21 C 11.097656 21 11.027344 21.007812 11.242188 20.792969 C 11.453125 20.582031 11.4375 20.816406 11.429688 17.535156 L 11.425781 14.632812 L 10.507812 14.148438 C 10.003906 13.882812 9.582031 13.667969 9.578125 13.667969 C 9.570312 13.667969 9.066406 13.953125 8.460938 14.296875 M 3.636719 17.042969 L 1.628906 18.191406 L 1.621094 19.324219 C 1.613281 20.703125 1.628906 20.769531 2.015625 20.941406 L 2.144531 21 L 3.660156 21 C 5.152344 21 5.179688 21 5.292969 20.949219 C 5.445312 20.875 5.570312 20.761719 5.636719 20.625 L 5.695312 20.511719 L 5.699219 18.203125 C 5.707031 16.34375 5.703125 15.894531 5.675781 15.894531 C 5.660156 15.898438 4.742188 16.414062 3.636719 17.042969 "/>
</g>
</svg>
