<?xml version="1.0" encoding="UTF-8"?>
<svg xmlns="http://www.w3.org/2000/svg" xmlns:xlink="http://www.w3.org/1999/xlink" width="24px" height="24px" viewBox="0 0 24 24" version="1.1">
<g id="surface1">
<path style=" stroke:none;fill-rule:evenodd;fill:rgb(0%,0%,0%);fill-opacity:1;" d="M 17.84375 0.445312 C 14.453125 1.085938 12.628906 4.6875 14.109375 7.804688 C 14.386719 8.386719 14.6875 8.757812 15.738281 9.808594 L 16.710938 10.78125 L 16.195312 10.78125 C 15.523438 10.78125 14.910156 10.851562 14.53125 10.972656 C 11.46875 11.949219 11.089844 16.101562 13.929688 17.578125 C 14.644531 17.953125 14.75 17.964844 17.132812 17.996094 C 19.507812 18.03125 19.503906 18.027344 19.976562 18.410156 C 21.242188 19.429688 20.941406 21.277344 19.410156 21.859375 L 19.148438 21.960938 L 13.195312 21.972656 L 7.242188 21.988281 L 7.992188 21.230469 C 8.40625 20.8125 8.824219 20.394531 8.925781 20.300781 C 11.324219 18.101562 10.699219 13.769531 7.75 12.160156 C 3.015625 9.570312 -2.097656 14.980469 0.820312 19.484375 C 1.117188 19.941406 4.320312 23.222656 4.730469 23.488281 L 4.941406 23.625 L 11.832031 23.625 C 16.011719 23.625 18.898438 23.605469 19.164062 23.578125 C 22.644531 23.210938 23.628906 18.648438 20.617188 16.859375 C 19.886719 16.425781 19.339844 16.351562 17.015625 16.363281 C 14.886719 16.371094 14.71875 16.335938 14.171875 15.738281 C 13.09375 14.570312 13.796875 12.648438 15.382812 12.417969 C 15.828125 12.355469 18.359375 12.363281 18.480469 12.429688 C 18.625 12.503906 19.03125 12.5 19.179688 12.417969 C 19.46875 12.265625 22.84375 8.851562 23.121094 8.433594 C 24.707031 6.050781 24.097656 2.84375 21.761719 1.269531 C 20.660156 0.53125 19.117188 0.207031 17.84375 0.445312 M 19.667969 2.109375 C 21.828125 2.65625 22.96875 5.023438 22.03125 7.019531 C 21.757812 7.609375 21.476562 7.925781 19.808594 9.535156 L 18.796875 10.507812 L 17.53125 9.273438 C 15.566406 7.363281 15.308594 6.953125 15.246094 5.695312 C 15.136719 3.335938 17.367188 1.527344 19.667969 2.109375 M 18.496094 3.617188 C 16.894531 3.832031 16.234375 5.859375 17.386719 7.023438 C 18.644531 8.289062 20.8125 7.390625 20.8125 5.601562 C 20.8125 4.359375 19.753906 3.449219 18.496094 3.617188 M 5.824219 13.191406 C 8.191406 13.644531 9.425781 16.074219 8.382812 18.234375 L 8.144531 18.726562 L 6.675781 20.203125 L 5.203125 21.679688 L 3.757812 20.226562 C 2.183594 18.648438 2.046875 18.472656 1.800781 17.742188 C 0.96875 15.265625 3.238281 12.695312 5.824219 13.191406 M 4.757812 14.835938 C 3.753906 15.058594 3.074219 16.066406 3.234375 17.097656 C 3.535156 19.046875 6.207031 19.429688 7.042969 17.636719 C 7.75 16.125 6.40625 14.472656 4.757812 14.835938 "/>
</g>
</svg>
