<?xml version="1.0" encoding="UTF-8"?>
<svg xmlns="http://www.w3.org/2000/svg" xmlns:xlink="http://www.w3.org/1999/xlink" width="24px" height="24px" viewBox="0 0 24 24" version="1.1">
<g id="surface1">
<path style=" stroke:none;fill-rule:evenodd;fill:rgb(0%,0%,0%);fill-opacity:1;" d="M 3.152344 0.0234375 C 2.679688 0.09375 2.261719 0.460938 2.097656 0.945312 L 2.039062 1.121094 L 2.039062 11.992188 C 2.039062 21.679688 2.042969 22.878906 2.074219 23.003906 C 2.183594 23.414062 2.53125 23.773438 2.976562 23.933594 L 3.128906 23.988281 L 11.871094 23.996094 C 17.84375 24 20.671875 23.992188 20.800781 23.976562 C 21.300781 23.910156 21.742188 23.515625 21.90625 22.980469 C 21.972656 22.769531 21.96875 1.246094 21.902344 1.019531 C 21.761719 0.527344 21.382812 0.160156 20.894531 0.0351562 C 20.742188 -0.00390625 3.40625 -0.015625 3.152344 0.0234375 M 20.6875 0.925781 C 20.808594 0.960938 20.929688 1.0625 20.996094 1.183594 C 21.058594 1.300781 21.054688 22.683594 20.992188 22.804688 C 20.929688 22.921875 20.863281 22.988281 20.753906 23.046875 L 20.660156 23.097656 L 12.058594 23.105469 C 5.824219 23.109375 3.421875 23.101562 3.332031 23.082031 C 3.160156 23.046875 3.015625 22.914062 2.964844 22.75 C 2.910156 22.5625 2.910156 1.398438 2.96875 1.234375 C 3.011719 1.105469 3.171875 0.953125 3.300781 0.917969 C 3.457031 0.875 20.542969 0.882812 20.6875 0.925781 M 13.464844 2.765625 C 13.027344 2.984375 13.0625 3.691406 13.515625 3.820312 C 13.578125 3.835938 14.582031 3.84375 16.59375 3.84375 L 19.582031 3.84375 L 19.703125 3.773438 C 20.097656 3.546875 20.070312 2.953125 19.65625 2.761719 C 19.5 2.691406 13.605469 2.695312 13.464844 2.765625 M 4.4375 3.082031 C 4.332031 3.15625 4.335938 3.066406 4.339844 6.847656 L 4.347656 10.453125 L 4.414062 10.515625 L 4.476562 10.582031 L 8.089844 10.589844 L 11.699219 10.59375 L 11.78125 10.515625 C 11.871094 10.421875 11.886719 10.3125 11.820312 10.222656 C 11.734375 10.097656 11.890625 10.101562 8.226562 10.101562 L 4.828125 10.101562 L 4.824219 6.644531 L 4.816406 3.183594 L 4.738281 3.117188 C 4.652344 3.039062 4.519531 3.023438 4.4375 3.082031 M 11.195312 3.605469 L 10.804688 3.902344 L 10.992188 3.949219 L 10.832031 4.230469 C 10.199219 5.328125 9.425781 6.621094 9.394531 6.640625 C 9.367188 6.65625 9.222656 6.621094 8.828125 6.496094 C 8.238281 6.308594 8.179688 6.300781 8.101562 6.386719 C 8.074219 6.417969 7.882812 6.800781 7.675781 7.238281 C 7.390625 7.839844 7.292969 8.03125 7.265625 8.019531 C 7.246094 8.015625 6.949219 7.886719 6.605469 7.742188 C 5.75 7.375 5.863281 7.332031 5.433594 8.183594 C 5.261719 8.523438 5.09375 8.859375 5.058594 8.929688 C 4.960938 9.113281 4.9375 9.304688 4.960938 9.667969 L 4.980469 9.972656 L 5.496094 8.949219 L 6.011719 7.929688 L 6.644531 8.199219 C 7.28125 8.46875 7.445312 8.515625 7.511719 8.460938 C 7.558594 8.421875 7.691406 8.15625 8.039062 7.417969 C 8.382812 6.679688 8.277344 6.742188 8.894531 6.9375 C 9.476562 7.121094 9.550781 7.132812 9.636719 7.035156 C 9.667969 7 10.0625 6.34375 10.511719 5.578125 C 10.960938 4.8125 11.332031 4.179688 11.335938 4.171875 C 11.34375 4.164062 11.375 4.195312 11.410156 4.238281 L 11.472656 4.316406 L 11.542969 3.808594 C 11.582031 3.53125 11.609375 3.304688 11.601562 3.304688 C 11.59375 3.304688 11.410156 3.4375 11.195312 3.605469 M 11.316406 4.632812 C 11.285156 4.667969 10.792969 5.5 10.546875 5.929688 L 10.488281 6.035156 L 10.480469 7.972656 L 10.476562 9.914062 L 11.386719 9.914062 L 11.402344 9.757812 C 11.425781 9.5625 11.394531 4.949219 11.371094 4.738281 C 11.355469 4.597656 11.351562 4.589844 11.316406 4.632812 M 16.3125 6.257812 C 13.195312 6.269531 13.449219 6.257812 13.296875 6.429688 C 13.058594 6.699219 13.117188 7.113281 13.417969 7.300781 L 13.53125 7.371094 L 16.546875 7.375 L 19.558594 7.382812 L 19.683594 7.3125 C 20.082031 7.082031 20.078125 6.550781 19.671875 6.3125 C 19.539062 6.234375 19.808594 6.238281 16.3125 6.257812 M 9.925781 6.984375 C 9.683594 7.335938 9.535156 7.394531 9.214844 7.273438 C 9.195312 7.261719 9.1875 7.535156 9.1875 8.585938 L 9.1875 9.914062 L 10.078125 9.914062 L 10.078125 8.367188 C 10.078125 7.515625 10.070312 6.820312 10.0625 6.820312 C 10.050781 6.820312 9.992188 6.894531 9.925781 6.984375 M 8.390625 7.167969 C 8.363281 7.226562 8.304688 7.355469 8.261719 7.453125 C 8.21875 7.550781 8.121094 7.75 8.042969 7.898438 C 7.851562 8.277344 7.84375 8.335938 7.839844 9.195312 L 7.839844 9.914062 L 8.765625 9.914062 L 8.765625 7.128906 L 8.671875 7.09375 C 8.503906 7.023438 8.449219 7.039062 8.390625 7.167969 M 5.675781 9.058594 C 5.457031 9.503906 5.273438 9.878906 5.273438 9.890625 C 5.273438 9.90625 5.425781 9.914062 5.683594 9.914062 L 6.09375 9.914062 L 6.09375 9.082031 C 6.09375 8.625 6.089844 8.25 6.085938 8.25 C 6.085938 8.25 5.898438 8.613281 5.675781 9.058594 M 6.515625 9.148438 L 6.515625 9.914062 L 7.429688 9.914062 L 7.429688 8.753906 L 7.015625 8.582031 C 6.785156 8.492188 6.578125 8.410156 6.554688 8.402344 C 6.519531 8.386719 6.515625 8.433594 6.515625 9.148438 M 13.542969 9.796875 C 13.078125 9.9375 13.007812 10.628906 13.4375 10.859375 L 13.535156 10.910156 L 16.511719 10.917969 C 19.75 10.925781 19.617188 10.929688 19.78125 10.789062 C 20.113281 10.503906 20.007812 9.921875 19.601562 9.800781 C 19.488281 9.769531 13.652344 9.761719 13.542969 9.796875 M 4.570312 13.652344 C 4.070312 13.871094 4.097656 14.578125 4.617188 14.726562 C 4.792969 14.78125 10.527344 14.785156 10.671875 14.730469 C 11.148438 14.5625 11.171875 13.847656 10.707031 13.652344 C 10.574219 13.597656 4.695312 13.601562 4.570312 13.652344 M 15.527344 13.632812 C 13.636719 13.859375 12.164062 15.390625 12.078125 17.222656 L 12.0625 17.507812 L 15.960938 17.507812 L 15.960938 13.617188 L 15.777344 13.621094 C 15.679688 13.621094 15.566406 13.628906 15.527344 13.632812 M 15.679688 15.574219 L 15.679688 17.273438 L 14.007812 17.269531 L 12.339844 17.261719 L 12.34375 17.082031 C 12.363281 16.195312 13.050781 15.066406 13.933594 14.476562 C 14.398438 14.160156 15.164062 13.882812 15.582031 13.875 L 15.679688 13.875 L 15.679688 15.574219 M 16.359375 15.964844 L 16.359375 17.894531 L 16.28125 18.070312 C 16.238281 18.167969 15.863281 18.960938 15.445312 19.835938 C 15.03125 20.710938 14.695312 21.429688 14.699219 21.433594 C 14.964844 21.671875 15.976562 21.875 16.648438 21.820312 C 19.871094 21.5625 21.40625 17.777344 19.28125 15.328125 C 18.617188 14.5625 17.515625 14.039062 16.570312 14.039062 L 16.359375 14.039062 L 16.359375 15.964844 M 4.558594 17.191406 C 4.105469 17.386719 4.101562 18.058594 4.550781 18.246094 C 4.628906 18.277344 4.980469 18.28125 7.636719 18.28125 L 10.636719 18.28125 L 10.761719 18.214844 C 11.132812 18.019531 11.132812 17.417969 10.761719 17.222656 L 10.636719 17.15625 L 7.632812 17.15625 C 5.175781 17.15625 4.617188 17.164062 4.558594 17.191406 M 11.914062 18.402344 C 11.964844 19.351562 12.386719 20.234375 13.132812 20.945312 C 13.417969 21.21875 13.96875 21.585938 14.089844 21.585938 C 14.113281 21.585938 15.691406 18.339844 15.769531 18.136719 C 15.773438 18.125 14.933594 18.117188 13.839844 18.117188 L 11.898438 18.117188 L 11.914062 18.402344 M 4.511719 20.738281 C 4.097656 20.925781 4.125 21.605469 4.550781 21.785156 C 4.699219 21.84375 10.589844 21.835938 10.722656 21.777344 C 11.164062 21.578125 11.140625 20.871094 10.691406 20.722656 C 10.535156 20.671875 4.628906 20.6875 4.511719 20.738281 "/>
</g>
</svg>
